<?xml version="1.0" encoding="utf-8"?>
<!-- Generator: Adobe Illustrator 19.0.0, SVG Export Plug-In . SVG Version: 6.00 Build 0)  -->
<svg version="1.1" xmlns="http://www.w3.org/2000/svg" xmlns:xlink="http://www.w3.org/1999/xlink" x="0px" y="0px"
	 viewBox="0 0 595.3 841.9" style="enable-background:new 0 0 595.3 841.9;" xml:space="preserve">
<style type="text/css">
	.st0{fill:#82CF1F;}
	.st1{fill:#FFFFFF;}
	.st2{fill-rule:evenodd;clip-rule:evenodd;fill:#82CF1F;}
	.st3{fill-rule:evenodd;clip-rule:evenodd;fill:#FFFFFF;}
</style>
<g id="Layer_2">
</g>
<g id="Layer_x5F_1_x5F_1">
	<g>
		<polygon class="st0" points="286.1,-589.3 -646.7,-918.5 -646.7,1111.6 286.1,809.8 		"/>
		<polygon class="st1" points="263.7,-590.4 1232.1,-919.5 1232.1,1110.5 263.7,808.8 		"/>
		<polygon class="st1" points="-888.5,1466.9 263.7,1082.9 263.7,-590.6 -888.5,-206.5 		"/>
		<polygon class="st0" points="788.7,1492.2 952,1760.9 1038.1,1511.3 		"/>
		<g>
			<path class="st0" d="M-496.8-13.8c-6.1-6,8,49.1,27.6,68.9c34.8,35.1,61.9,39.6,76.4,40.2c32,1.3,71.5-8,94.9-17.8
				c22.7-9.7,62.5-30,77.5-59.6c3.2-6.3,11.9-17,6.4-43.2c-4.2-20.2-17-27.3-32.7-26.1c-15.7,1.1-63.2,13.7-86.1,20.8
				c-23,7-70.3,21.4-90.9,25.8C-444.2-0.3-489.5-6.8-496.8-13.8z"/>
			<path class="st0" d="M84.6,645.2c-9.1-3.3-196.9-81.1-223.6-93.9c-21.8-10.5-75.2-33.1-100.4-43.3
				c70.8-109.2,115.5-191.6,121.5-204.1c11-23,86-169.6,87.7-178.7c1.7-9.1,3.8-42.9,2.2-51c-1.6-8.2-29.1,7.5-66.4,20.2
				c-37.4,12.6-108.4,58.8-135.8,64.6c-27.5,5.7-115.5,39.1-160.5,54c-45,14.9-130.2,40.9-165.2,50.4c-35.1,9.5-65.7,10.2-85.3,16.2
				c0,0,2.6,27.5,7.8,35.7c5.1,8.2,23.7,28.4,45.3,34.1c21.6,5.7,57.3,3.4,73.6-0.3c16.3-3.8,44.4-17.5,48.2-23.6
				c3.8-6.1-2-24.9,4.5-30.6c6.5-5.6,92.2-25.7,124.6-35.4c32.4-10,156.3-52.6,173.1-50.5c-5.3,17.6-105,215.1-137.1,274
				c-32.1,58.9-218.6,318-258.3,363.6c-30.1,34.7-103.2,123.5-128.5,143.6c6.4,1.8,51.6-2.1,59.8-7.2
				c51.4-31.6,136.9-138.1,164.4-170.5c81.9-96,153.8-196.8,210.8-283.4h0.1c11.1,4.6,100.9,77.8,124.4,94
				c23.4,16.2,115.9,67.8,136,76.4c20,8.7,97.1,44.2,100.3,32.2C110.9,719.5,93.7,648.6,84.6,645.2z"/>
		</g>
		<path class="st2" d="M-349.5,1623.5c18,11,35,20,54,29c38,19,81,39,122,54c56,21,112,38,168,51c31,7,65,13,98,18c3,0,92,11,110,11
			h90c35-3,68-5,103-10c28-4,59-9,89-16c22-5,45-10,67-17c21-6,45-14,68-22c15-5,31-12,47-18c13-6,29-13,44-19c18-8,39-19,59-29
			c16-8,34-18,51-28c13-7,43-30,59-30c18,0,30,16,30,30c0,29-39,38-57,51c-19,13-42,23-62,34c-40,21-81,39-120,54
			c-51,19-107,37-157,49c-19,4-38,9-57,12c-10,2-114,18-143,18h-132c-35-3-72-7-107-12c-31-5-64-11-95-18c-24-5-50-12-73-19
			c-40-11-79-25-117-40c-69-26-141-60-209-105c-12-8-13-16-13-25c0-15,11-29,29-29C-387.5,1597.5-355.5,1620.5-349.5,1623.5z"/>
		<path class="st2" d="M232.5,1060.5l-1090,363v-1608l1090-363V1060.5z M293.5-594.5v1680c-1,5-3,10-7,15c-2,3-6,7-9,8
			c-25,10-1151,388-1166,388c-12,0-23-8-29-21c0-1-1-2-1-4v-1681c2-5,3-12,7-16c8-11,22-13,31-16c17-6,1126-378,1142-378
			C271.5-619.5,293.5-612.5,293.5-594.5z"/>
		<path class="st2" d="M1201.5,1068.5l-907-282v-1355l907-308V1068.5z M1262.5-916.5v2023c-1,23-17,33-32,33c-13,0-107-32-123-37
			c-126-39-253-78-378-117c-28-9-57-18-84-27c-24-7-50-15-74-23c-107-33-216-66-323-102c-4-1-14-15-14-18v-1413c2-5,4-11,9-15
			c8-9,351-123,486-168c36-13,487-168,501-168C1248.5-948.5,1262.5-935.5,1262.5-916.5z"/>
		<polygon class="st0" points="1492.7,1492.2 281,1106 286.1,-575.3 1492.7,-191.3 		"/>
		<g>
			<path class="st3" d="M881.8,176.1L762.9,463.5l218.7,66.3L881.8,176.1z M810.5-95.3L966.6-48L1251,977l-160.3-48.7L1033,717.9
				L701.7,617.5l-71.3,171.4L470,740.2L810.5-95.3z"/>
		</g>
	</g>
</g>
</svg>
